<svg width="256" height="256" viewBox="0 0 256 256" fill="none" xmlns="http://www.w3.org/2000/svg">
<rect width="256" height="256" fill="#1A1A1A"/>
<path d="M95.7049 93.2601C112.387 93.2601 125.91 79.4346 125.91 62.3801C125.91 45.3255 112.387 31.5 95.7049 31.5C79.0232 31.5 65.5 45.3255 65.5 62.3801C65.5 79.4346 79.0232 93.2601 95.7049 93.2601Z" fill="white"/>
<path d="M95.7049 158.88C112.387 158.88 125.91 145.055 125.91 128C125.91 110.946 112.387 97.1201 95.7049 97.1201C79.0232 97.1201 65.5 110.946 65.5 128C65.5 145.055 79.0232 158.88 95.7049 158.88Z" fill="white"/>
<path d="M160.295 224.5C176.976 224.5 190.5 210.675 190.5 193.62C190.5 176.566 176.976 162.74 160.295 162.74C143.613 162.74 130.09 176.566 130.09 193.62C130.09 210.675 143.613 224.5 160.295 224.5Z" fill="white"/>
<path d="M95.7049 224.5C112.387 224.5 125.91 210.675 125.91 193.62C125.91 176.566 112.387 162.74 95.7049 162.74C79.0232 162.74 65.5 176.566 65.5 193.62C65.5 210.675 79.0232 224.5 95.7049 224.5Z" fill="white"/>
</svg>
