<svg width="21" height="21" viewBox="0 0 21 21" fill="none" xmlns="http://www.w3.org/2000/svg">
<path opacity="0.08" d="M2.37406 20.5C1.16366 20.5 0.170898 19.5072 0.170898 18.2968V2.70316C0.170898 1.49276 1.16366 0.5 2.37406 0.5H18.1874C19.3978 0.5 20.3905 1.49276 20.3905 2.70316V18.2968C20.3905 19.5072 19.3978 20.5 18.1874 20.5H2.37406Z" fill="url(#paint0_linear_423_3019)"/>
<path opacity="0.1" d="M2.37415 20.2803C1.28224 20.2803 0.390625 19.3887 0.390625 18.2967V2.70306C0.390625 1.61115 1.28224 0.719534 2.37415 0.719534H18.1875C19.2794 0.719534 20.171 1.61115 20.171 2.70306V18.2967C20.171 19.3887 19.2794 20.2803 18.1875 20.2803H2.37415Z" fill="url(#paint1_linear_423_3019)"/>
<path opacity="0.2" d="M2.37422 20.0537C1.40585 20.0537 0.617188 19.2651 0.617188 18.2967V2.70299C0.617188 1.73462 1.40585 0.945957 2.37422 0.945957H18.1875C19.1559 0.945957 19.9446 1.73462 19.9446 2.70299V18.2967C19.9446 19.2651 19.1559 20.0537 18.1875 20.0537H2.37422Z" fill="url(#paint2_linear_423_3019)"/>
<path opacity="0.3" d="M18.1876 19.834H2.37432C1.52523 19.834 0.836914 19.1457 0.836914 18.2966V2.70289C0.836914 1.85381 1.52523 1.16549 2.37432 1.16549H18.1876C19.0367 1.16549 19.725 1.85381 19.725 2.70289V18.2966C19.725 19.1457 19.0367 19.834 18.1876 19.834Z" fill="url(#paint3_linear_423_3019)"/>
<path opacity="0.45" d="M18.1877 19.6143H2.37442C1.64663 19.6143 1.05664 19.0243 1.05664 18.2965V2.48317C1.05664 1.75538 1.64663 1.16539 2.37442 1.16539H18.1877C18.9155 1.16539 19.5055 1.75538 19.5055 2.48317V18.2965C19.5055 19.0243 18.9155 19.6143 18.1877 19.6143Z" fill="url(#paint4_linear_423_3019)"/>
<path d="M18.1877 0.946289H2.37442C1.64663 0.946289 1.05664 1.53628 1.05664 2.26407V18.0774C1.05664 18.8052 1.64663 19.3952 2.37442 19.3952H18.1877C18.9155 19.3952 19.5055 18.8052 19.5055 18.0774V2.26407C19.5055 1.53628 18.9155 0.946289 18.1877 0.946289Z" fill="url(#paint5_linear_423_3019)"/>
<path opacity="0.35" d="M2.37442 0.946289C1.64437 0.946289 1.05664 1.53402 1.05664 2.26407V2.70332V17.6381V18.0774C1.05664 18.1509 1.06572 18.2203 1.07723 18.2901C1.08793 18.3551 1.09854 18.4212 1.11841 18.4823C1.12058 18.489 1.123 18.4963 1.12527 18.5029C1.14699 18.5661 1.17686 18.6231 1.20764 18.6814C1.23939 18.7414 1.27695 18.799 1.31745 18.8529C1.35795 18.9069 1.39954 18.9569 1.44786 19.0039C1.54448 19.098 1.65495 19.1828 1.7773 19.2442C1.83848 19.2748 1.90325 19.2984 1.96948 19.3197C1.91321 19.2976 1.86258 19.2678 1.81162 19.2373C1.80999 19.2363 1.80637 19.2383 1.80475 19.2373C1.79774 19.2331 1.79107 19.228 1.78416 19.2236C1.75772 19.2067 1.73342 19.1877 1.70867 19.1687C1.68535 19.1509 1.66182 19.1333 1.64003 19.1138C1.60095 19.0783 1.56372 19.0379 1.53022 18.9971C1.50659 18.9685 1.48225 18.9388 1.46158 18.9079C1.45607 18.8994 1.45314 18.889 1.44786 18.8804C1.43363 18.8578 1.41925 18.8355 1.40667 18.8118C1.38449 18.769 1.3615 18.7205 1.3449 18.6745C1.34316 18.6697 1.33972 18.6656 1.33804 18.6608C1.33105 18.6406 1.33018 18.6197 1.32431 18.599C1.31765 18.5756 1.30885 18.5544 1.30372 18.5304C1.28772 18.4554 1.27627 18.377 1.27627 18.297V17.8577V2.92295V2.48369C1.27627 1.87272 1.76344 1.38555 2.37442 1.38555H2.81368H17.7485H18.1877C18.7987 1.38555 19.2859 1.87272 19.2859 2.48369V2.92295V17.8577V18.297C19.2859 18.377 19.2744 18.4554 19.2584 18.5304C19.2487 18.5758 19.239 18.6177 19.2241 18.6608C19.2224 18.6656 19.219 18.6697 19.2172 18.6745C19.2035 18.7127 19.1868 18.7552 19.1692 18.7912C19.1601 18.8094 19.1518 18.8285 19.1417 18.8461C19.1298 18.8674 19.1139 18.8874 19.1006 18.9079C19.0799 18.9388 19.0556 18.9685 19.0319 18.9971C19.0005 19.0354 18.9654 19.0733 18.929 19.1069C18.9265 19.1091 18.9246 19.1115 18.9221 19.1138C18.8917 19.1413 18.8595 19.1652 18.826 19.1893C18.8035 19.2053 18.7812 19.2229 18.7574 19.2373C18.7558 19.2383 18.7522 19.2363 18.7505 19.2373C18.6996 19.2678 18.6489 19.2976 18.5927 19.3197C18.6589 19.2984 18.7237 19.2748 18.7848 19.2442C18.9072 19.1828 19.0177 19.098 19.1143 19.0039C19.1626 18.9569 19.2042 18.9069 19.2447 18.8529C19.2852 18.799 19.3228 18.7414 19.3545 18.6814C19.3853 18.6231 19.4152 18.5661 19.4369 18.5029C19.4392 18.4962 19.4416 18.4891 19.4437 18.4823C19.4636 18.4212 19.4742 18.3551 19.4849 18.2901C19.4964 18.2203 19.5055 18.1509 19.5055 18.0774V17.6381V2.70332V2.26407C19.5055 1.53402 18.9178 0.946289 18.1877 0.946289H2.37442Z" fill="url(#paint6_linear_423_3019)"/>
<path opacity="0.213" d="M2.37442 19.3949C1.64437 19.3949 1.05664 18.8071 1.05664 18.0771V17.6378V2.70302V2.26376C1.05664 2.19025 1.06572 2.12085 1.07723 2.051C1.08793 1.98608 1.09854 1.9199 1.11841 1.85882C1.12058 1.85215 1.123 1.84485 1.12527 1.83823C1.14699 1.77503 1.17686 1.71799 1.20764 1.65978C1.23939 1.59971 1.27695 1.54215 1.31745 1.4882C1.35795 1.43425 1.39954 1.38421 1.44786 1.3372C1.54448 1.24319 1.65495 1.15831 1.7773 1.09698C1.83848 1.06632 1.90325 1.04275 1.96948 1.02148C1.91321 1.0435 1.86258 1.07338 1.81162 1.10385C1.80999 1.10481 1.80637 1.10286 1.80475 1.10385C1.79774 1.10808 1.79107 1.11318 1.78416 1.11757C1.75772 1.13442 1.73342 1.15348 1.70867 1.17248C1.68535 1.19023 1.66182 1.20786 1.64003 1.22739C1.60095 1.26284 1.56372 1.30324 1.53022 1.34407C1.50659 1.37267 1.48225 1.40233 1.46158 1.43329C1.45607 1.44172 1.45314 1.45215 1.44786 1.46074C1.43363 1.48337 1.41925 1.50566 1.40667 1.52938C1.38449 1.57214 1.3615 1.62068 1.3449 1.66665C1.34316 1.67144 1.33972 1.67555 1.33804 1.68037C1.33105 1.70057 1.33018 1.72141 1.32431 1.74214C1.31765 1.76556 1.30885 1.78673 1.30372 1.81078C1.28772 1.88578 1.27627 1.96412 1.27627 2.04413V2.48339V17.4182V17.8574C1.27627 18.4684 1.76344 18.9556 2.37442 18.9556H2.81368H17.7485H18.1877C18.7987 18.9556 19.2859 18.4684 19.2859 17.8574V17.4182V2.48339V2.04413C19.2859 1.96412 19.2744 1.88578 19.2584 1.81078C19.2487 1.76534 19.239 1.72344 19.2241 1.68037C19.2224 1.67555 19.219 1.67144 19.2172 1.66665C19.2035 1.62849 19.1868 1.58594 19.1692 1.54997C19.1601 1.53178 19.1518 1.51264 19.1417 1.49506C19.1298 1.47371 19.1139 1.45369 19.1006 1.43329C19.0799 1.40233 19.0556 1.37267 19.0319 1.34407C19.0005 1.30575 18.9654 1.26785 18.929 1.23425C18.9265 1.23201 18.9246 1.22961 18.9221 1.22739C18.8917 1.19981 18.8595 1.1759 18.826 1.15189C18.8035 1.13582 18.7812 1.11821 18.7574 1.10385C18.7558 1.10286 18.7522 1.10481 18.7505 1.10385C18.6996 1.07338 18.6489 1.0435 18.5927 1.02148C18.6589 1.04274 18.7237 1.06632 18.7848 1.09698C18.9072 1.15831 19.0177 1.24319 19.1143 1.3372C19.1626 1.38421 19.2042 1.43425 19.2447 1.4882C19.2852 1.54215 19.3228 1.59971 19.3545 1.65978C19.3853 1.71799 19.4152 1.77503 19.4369 1.83823C19.4392 1.84499 19.4416 1.85201 19.4437 1.85882C19.4636 1.9199 19.4742 1.98608 19.4849 2.051C19.4964 2.12085 19.5055 2.19025 19.5055 2.26376V2.70302V17.6378V18.0771C19.5055 18.8071 18.9178 19.3949 18.1877 19.3949H2.37442Z" fill="url(#paint7_linear_423_3019)"/>
<path d="M3.81944 2.941C3.46544 2.93491 3.15733 3.06818 2.9965 3.45931C2.72599 4.11835 3.40076 4.76122 3.642 5.09511C3.81113 5.32935 4.02746 5.59244 4.14851 5.85597C4.22806 6.02903 4.24204 6.20341 4.31021 6.38652C4.47759 6.83797 4.62313 7.32788 4.8399 7.74523C4.94959 7.95632 5.0702 8.17965 5.20874 8.368C5.29352 8.48382 5.43906 8.53495 5.46221 8.71369C5.31975 8.91298 5.31188 9.22108 5.2319 9.47324C4.87179 10.6086 5.00727 12.0202 5.53126 12.8606C5.6921 13.1185 6.071 13.6718 6.5915 13.4594C7.04688 13.2741 6.94549 12.6994 7.07572 12.192C7.10504 12.077 7.08662 11.9927 7.14434 11.9158V11.9389C7.28243 12.2156 7.42097 12.4914 7.55951 12.768C7.86674 13.2623 8.41127 13.7797 8.87496 14.1284C9.11445 14.3094 9.30325 14.6219 9.61266 14.7272V14.704H9.58949C9.52962 14.6105 9.4361 14.5711 9.35918 14.496C9.17869 14.3194 8.97765 14.0996 8.82863 13.8973C8.40864 13.3274 8.03805 12.7037 7.69979 12.0543C7.53809 11.744 7.39781 11.4023 7.26276 11.0867C7.21032 10.9652 7.21119 10.7808 7.10194 10.7179C6.95291 10.9491 6.73265 11.1361 6.61771 11.4093C6.43328 11.8458 6.40968 12.3777 6.34151 12.9297C6.30085 12.9441 6.3193 12.9349 6.29519 12.9528C5.97441 12.8755 5.86165 12.5451 5.74235 12.2615C5.44036 11.5447 5.38441 10.3905 5.64969 9.56543C5.71831 9.35216 6.0286 8.67958 5.90317 8.48205C5.8433 8.28538 5.64533 8.17219 5.53432 8.02186C5.39709 7.83612 5.26031 7.59139 5.16547 7.37681C4.91855 6.81785 4.80318 6.19028 4.54315 5.62433C4.41903 5.35424 4.20925 5.08066 4.03663 4.84073C3.84565 4.57459 3.63107 4.3788 3.48292 4.05714C3.43003 3.94265 3.35967 3.7604 3.43746 3.64328C3.4624 3.56418 3.4969 3.53053 3.57512 3.50474C3.70886 3.4016 4.0812 3.53928 4.22018 3.59696C4.58991 3.75035 4.89801 3.89632 5.21136 4.10347C5.36169 4.20311 5.51422 4.39584 5.69559 4.44916H5.90273C6.22701 4.52389 6.59062 4.47276 6.89391 4.56453C7.42971 4.72755 7.91 4.98058 8.34616 5.25591C9.67472 6.09457 10.7603 7.28852 11.5032 8.71279C11.623 8.94223 11.6746 9.16074 11.7799 9.40417C11.9923 9.89452 12.2602 10.3989 12.4713 10.8783C12.6823 11.3568 12.8877 11.8397 13.1858 12.2379C13.3427 12.4472 13.948 12.56 14.2229 12.6749C14.4156 12.7566 14.7316 12.8414 14.9142 12.9511C15.263 13.1617 15.6012 13.4122 15.9286 13.6425C16.092 13.7578 16.595 14.01 16.62 14.2185C15.8093 14.1966 15.1904 14.2718 14.6612 14.4947C14.5109 14.558 14.2705 14.5602 14.246 14.749C14.3286 14.8355 14.3422 14.9649 14.4077 15.0715C14.534 15.2761 14.7469 15.5496 14.9374 15.6934C15.1454 15.8503 15.3596 16.0186 15.5829 16.1545C15.9797 16.3962 16.422 16.5343 16.8039 16.7764C17.029 16.9193 17.2528 17.0985 17.4722 17.2597C17.5805 17.3393 17.6535 17.463 17.7947 17.5128V17.4906C17.7204 17.3961 17.702 17.2655 17.6339 17.1671L17.3345 16.8678C17.0417 16.4788 16.6693 16.1375 16.2743 15.8539C15.9592 15.6275 15.2529 15.3224 15.1214 14.9553C15.1135 14.9475 15.1061 14.9401 15.0982 14.9322C15.3216 14.9068 15.5842 14.8264 15.7905 14.7714C16.137 14.6783 16.446 14.7019 16.8035 14.6097C16.9648 14.5638 17.1265 14.5179 17.2877 14.472V14.3798C17.1068 14.194 16.9774 13.9488 16.7803 13.781C16.2642 13.3396 15.7009 12.9026 15.121 12.5359C14.7993 12.3327 14.4025 12.2016 14.0616 12.0294C13.9471 11.9717 13.7456 11.9411 13.6696 11.8446C13.4904 11.6164 13.3925 11.3276 13.2544 11.0618C12.9651 10.5046 12.6815 9.89629 12.4254 9.30936C12.2506 8.90992 12.1356 8.51529 11.918 8.15692C10.8713 6.43678 9.74507 5.39797 8.00002 4.37751C7.62855 4.16031 7.18191 4.07553 6.70948 3.96364C6.456 3.94834 6.20209 3.93263 5.94861 3.91731C5.79391 3.85263 5.63265 3.6634 5.48712 3.57163C5.12569 3.34351 4.41116 2.94756 3.82117 2.9375M6.31703 5.43773C6.1479 5.43437 6.02816 5.45655 5.90185 5.48406V5.50721H5.92501C6.00542 5.67285 6.1479 5.77948 6.24754 5.92239C6.32445 6.08366 6.40093 6.24447 6.47785 6.40574C6.48525 6.39834 6.49312 6.39131 6.50101 6.3835C6.64393 6.28298 6.70991 6.12172 6.70903 5.87611C6.65179 5.8158 6.64305 5.74107 6.59367 5.66896C6.52767 5.57325 6.4005 5.51819 6.31747 5.43777L6.31703 5.43773Z" fill="#DEF2FE"/>
<path d="M3.81944 2.941C3.46544 2.93491 3.15733 3.06818 2.9965 3.45931C2.72599 4.11835 3.40076 4.76122 3.642 5.09511C3.81113 5.32935 4.02746 5.59244 4.14851 5.85597C4.22806 6.02903 4.24204 6.20341 4.31021 6.38652C4.47759 6.83797 4.62313 7.32788 4.8399 7.74523C4.94959 7.95632 5.0702 8.17965 5.20874 8.368C5.29352 8.48382 5.43906 8.53495 5.46221 8.71369C5.31975 8.91298 5.31188 9.22107 5.2319 9.47324C4.87179 10.6086 5.00727 12.0202 5.53126 12.8606C5.6921 13.1185 6.071 13.6718 6.5915 13.4594C7.04688 13.2741 6.94548 12.6994 7.07572 12.192C7.10504 12.077 7.08662 11.9927 7.14434 11.9158V11.9389C7.28243 12.2156 7.42097 12.4914 7.55951 12.768C7.86674 13.2623 8.41127 13.7797 8.87496 14.1284C9.11445 14.3094 9.30325 14.6219 9.61266 14.7272V14.704H9.58949C9.52962 14.6105 9.4361 14.5711 9.35918 14.496C9.17869 14.3194 8.97765 14.0996 8.82863 13.8973C8.40864 13.3274 8.03805 12.7037 7.69979 12.0543C7.53809 11.744 7.39781 11.4023 7.26276 11.0867C7.21032 10.9652 7.21119 10.7808 7.10194 10.7179C6.95291 10.9491 6.73265 11.1361 6.61771 11.4093C6.43328 11.8458 6.40968 12.3777 6.34151 12.9297C6.30085 12.9441 6.3193 12.9349 6.29519 12.9528C5.97441 12.8755 5.86165 12.5451 5.74235 12.2615C5.44036 11.5447 5.38441 10.3905 5.64969 9.56543C5.71831 9.35216 6.0286 8.67958 5.90317 8.48205C5.8433 8.28538 5.64533 8.17219 5.53432 8.02186C5.39709 7.83612 5.26031 7.59139 5.16547 7.37681C4.91855 6.81785 4.80318 6.19028 4.54315 5.62433C4.41903 5.35424 4.20925 5.08066 4.03663 4.84073C3.84565 4.57459 3.63107 4.3788 3.48292 4.05714C3.43003 3.94265 3.35967 3.7604 3.43746 3.64328C3.4624 3.56418 3.4969 3.53053 3.57512 3.50474C3.70886 3.4016 4.0812 3.53928 4.22018 3.59696C4.58991 3.75035 4.89801 3.89632 5.21136 4.10347C5.36169 4.20311 5.51422 4.39584 5.69559 4.44916H5.90273C6.22701 4.52389 6.59062 4.47276 6.89391 4.56453C7.42971 4.72755 7.91 4.98058 8.34616 5.25591C9.67472 6.09457 10.7603 7.28852 11.5032 8.71279C11.623 8.94223 11.6746 9.16074 11.7799 9.40417C11.9923 9.89452 12.2602 10.3989 12.4713 10.8783C12.6823 11.3568 12.8877 11.8397 13.1858 12.2379C13.3427 12.4472 13.948 12.56 14.2229 12.6749C14.4156 12.7566 14.7316 12.8414 14.9142 12.9511C15.263 13.1617 15.6012 13.4122 15.9286 13.6425C16.092 13.7578 16.595 14.01 16.62 14.2185C15.8093 14.1966 15.1904 14.2718 14.6612 14.4947C14.5109 14.558 14.2705 14.5602 14.246 14.749C14.3286 14.8355 14.3422 14.9649 14.4077 15.0715C14.534 15.2761 14.7469 15.5496 14.9374 15.6934C15.1454 15.8503 15.3596 16.0186 15.5829 16.1545C15.9797 16.3962 16.422 16.5343 16.8039 16.7764C17.029 16.9193 17.2528 17.0985 17.4722 17.2597C17.5805 17.3393 17.6535 17.463 17.7947 17.5128V17.4906C17.7204 17.3961 17.702 17.2655 17.6339 17.1671L17.3345 16.8678C17.0417 16.4788 16.6693 16.1375 16.2743 15.8539C15.9592 15.6275 15.2529 15.3224 15.1214 14.9553C15.1135 14.9475 15.1061 14.9401 15.0982 14.9322C15.3216 14.9068 15.5842 14.8264 15.7905 14.7714C16.137 14.6783 16.446 14.7019 16.8035 14.6097C16.9648 14.5638 17.1265 14.5179 17.2877 14.472V14.3798C17.1068 14.194 16.9774 13.9488 16.7803 13.781C16.2642 13.3396 15.7009 12.9026 15.121 12.5359C14.7993 12.3327 14.4025 12.2016 14.0616 12.0294C13.9471 11.9717 13.7456 11.9411 13.6696 11.8446C13.4904 11.6164 13.3925 11.3276 13.2544 11.0618C12.9651 10.5046 12.6815 9.89629 12.4254 9.30936C12.2506 8.90992 12.1356 8.51529 11.918 8.15692C10.8713 6.43678 9.74507 5.39797 8.00002 4.37751C7.62855 4.16031 7.18191 4.07553 6.70948 3.96364C6.456 3.94834 6.20209 3.93263 5.94861 3.91731C5.79391 3.85263 5.63265 3.6634 5.48712 3.57163C5.12569 3.34351 4.41116 2.94756 3.82117 2.9375M6.31703 5.43773C6.1479 5.43437 6.02816 5.45655 5.90185 5.48406V5.50721H5.92501C6.00542 5.67285 6.1479 5.77948 6.24754 5.92239C6.32445 6.08366 6.40093 6.24447 6.47785 6.40574C6.48525 6.39834 6.49312 6.39131 6.50101 6.3835C6.64393 6.28298 6.70991 6.12172 6.70903 5.87611C6.65179 5.8158 6.64305 5.74107 6.59367 5.66896C6.52767 5.57325 6.4005 5.51819 6.31747 5.43777L6.31703 5.43773Z" stroke="#DEF2FE" stroke-width="0.717938" stroke-linecap="square" stroke-linejoin="bevel"/>
<defs>
<linearGradient id="paint0_linear_423_3019" x1="6.73942" y1="19.805" x2="6.73942" y2="1.11272" gradientUnits="userSpaceOnUse">
<stop/>
<stop offset="1" stop-opacity="0.588235"/>
</linearGradient>
<linearGradient id="paint1_linear_423_3019" x1="6.73952" y1="19.8049" x2="6.73952" y2="1.11263" gradientUnits="userSpaceOnUse">
<stop/>
<stop offset="1" stop-opacity="0.588235"/>
</linearGradient>
<linearGradient id="paint2_linear_423_3019" x1="6.73959" y1="19.8048" x2="6.73959" y2="1.11256" gradientUnits="userSpaceOnUse">
<stop/>
<stop offset="1" stop-opacity="0.588235"/>
</linearGradient>
<linearGradient id="paint3_linear_423_3019" x1="6.73969" y1="19.8047" x2="6.73969" y2="1.11246" gradientUnits="userSpaceOnUse">
<stop/>
<stop offset="1" stop-opacity="0.588235"/>
</linearGradient>
<linearGradient id="paint4_linear_423_3019" x1="6.82214" y1="19.5853" x2="6.82214" y2="1.11299" gradientUnits="userSpaceOnUse">
<stop/>
<stop offset="1" stop-opacity="0.588235"/>
</linearGradient>
<linearGradient id="paint5_linear_423_3019" x1="10.2811" y1="19.3952" x2="10.2811" y2="0.943591" gradientUnits="userSpaceOnUse">
<stop stop-color="#233D65"/>
<stop offset="1" stop-color="#396AA1"/>
</linearGradient>
<linearGradient id="paint6_linear_423_3019" x1="7.72396" y1="0.946289" x2="7.72396" y2="13.6613" gradientUnits="userSpaceOnUse">
<stop stop-color="#FEFEFE"/>
<stop offset="1" stop-color="#FEFEFE" stop-opacity="0"/>
</linearGradient>
<linearGradient id="paint7_linear_423_3019" x1="1.05664" y1="10.2082" x2="19.5055" y2="10.2082" gradientUnits="userSpaceOnUse">
<stop stop-color="#06B5FF"/>
<stop offset="1" stop-color="#00FFFF" stop-opacity="0"/>
</linearGradient>
</defs>
</svg>
