<svg width="24" height="24" viewBox="0 0 24 24" fill="none" xmlns="http://www.w3.org/2000/svg">
<path d="M22.2192 11.7842L11.7842 22.2192C11.6043 22.418 11.5078 22.6783 11.5145 22.9463C11.5212 23.2143 11.6307 23.4695 11.8202 23.6591C12.0098 23.8487 12.265 23.9581 12.533 23.9648C12.801 23.9716 13.0613 23.875 13.2602 23.6952L23.6952 13.2602C23.875 13.0613 23.9716 12.801 23.9648 12.533C23.9581 12.265 23.8487 12.0098 23.6591 11.8202C23.4695 11.6307 23.2143 11.5212 22.9463 11.5145C22.6783 11.5078 22.418 11.6043 22.2192 11.7842ZM20.1322 0.305163L0.305163 20.1322C0.12532 20.331 0.0287713 20.5913 0.0354842 20.8593C0.0421972 21.1273 0.151659 21.3825 0.34123 21.5721C0.530801 21.7617 0.78598 21.8711 1.05399 21.8778C1.322 21.8846 1.58234 21.788 1.78116 21.6082L21.6082 1.78116C21.788 1.58234 21.8846 1.322 21.8778 1.05399C21.8711 0.78598 21.7617 0.530801 21.5721 0.34123C21.3825 0.151659 21.1273 0.0421972 20.8593 0.0354842C20.5913 0.0287713 20.331 0.12532 20.1322 0.305163Z" fill="black"/>
</svg>
