<svg width="331" height="237" viewBox="0 0 331 237" fill="none" xmlns="http://www.w3.org/2000/svg">
<ellipse cx="37.2958" cy="37.92" rx="37.2958" ry="37.92" fill="black"/>
<path d="M153.345 37.92C153.345 58.5943 136.863 75.34 116.549 75.34C96.2352 75.34 79.7534 58.5943 79.7534 37.92C79.7534 17.2456 96.2352 0.5 116.549 0.5C136.863 0.5 153.345 17.2456 153.345 37.92Z" stroke="black"/>
<ellipse cx="37.2958" cy="118.5" rx="37.2958" ry="37.92" fill="black"/>
<path d="M153.345 118.5C153.345 139.174 136.863 155.92 116.549 155.92C96.2352 155.92 79.7534 139.174 79.7534 118.5C79.7534 97.8257 96.2352 81.0801 116.549 81.0801C136.863 81.0801 153.345 97.8257 153.345 118.5Z" stroke="black"/>
<ellipse cx="37.2958" cy="199.08" rx="37.2958" ry="37.92" fill="black"/>
<path d="M153.345 199.08C153.345 219.755 136.863 236.5 116.549 236.5C96.2352 236.5 79.7534 219.755 79.7534 199.08C79.7534 178.406 96.2352 161.66 116.549 161.66C136.863 161.66 153.345 178.406 153.345 199.08Z" stroke="black"/>
<path d="M251.246 37.92C251.246 58.5943 234.765 75.34 214.451 75.34C194.137 75.34 177.655 58.5943 177.655 37.92C177.655 17.2456 194.137 0.5 214.451 0.5C234.765 0.5 251.246 17.2456 251.246 37.92Z" stroke="black"/>
<ellipse cx="293.704" cy="37.92" rx="37.2958" ry="37.92" fill="black"/>
<ellipse cx="214.451" cy="118.5" rx="37.2958" ry="37.92" fill="black"/>
<path d="M330.5 118.5C330.5 139.174 314.018 155.92 293.704 155.92C273.39 155.92 256.908 139.174 256.908 118.5C256.908 97.8257 273.39 81.0801 293.704 81.0801C314.018 81.0801 330.5 97.8257 330.5 118.5Z" stroke="black"/>
<ellipse cx="214.451" cy="199.08" rx="37.2958" ry="37.92" fill="black"/>
<path d="M330.5 199.08C330.5 219.755 314.018 236.5 293.704 236.5C273.39 236.5 256.908 219.755 256.908 199.08C256.908 178.406 273.39 161.66 293.704 161.66C314.018 161.66 330.5 178.406 330.5 199.08Z" stroke="black"/>
</svg>
