<svg width="20" height="20" viewBox="0 0 20 20" fill="none" xmlns="http://www.w3.org/2000/svg">
<path d="M10.3261 0.833017C10.108 0.833017 9.88928 0.919428 9.72059 1.08675C9.71801 1.08931 9.71482 1.0905 9.71224 1.09309L4.04199 4.42342L9.69768 10.1707V10.1749L16.4957 17.083L17.792 14.7105L13.1186 3.30907L10.9379 1.09309C10.7682 0.920657 10.5476 0.833017 10.3261 0.833017Z" fill="#66C3FA"/>
<path d="M4.29895 4.16602L0.969624 9.81654C0.967026 9.8191 0.96588 9.82229 0.963282 9.82486C0.795909 9.99309 0.70902 10.2131 0.708984 10.4307C0.708945 10.6515 0.796126 10.8697 0.96855 11.039L3.72794 13.7497L14.5196 17.916L16.959 16.5857L16.8935 16.5213L16.8766 16.5235L10.1113 9.87227L10.1028 9.87225L4.29895 4.16602Z" fill="#215896"/>
<path d="M4.04199 4.16602L9.83094 9.97734L9.83929 9.97734L16.5021 16.666L19.0382 16.1809L19.042 8.65646L16.364 6.0244C15.7775 5.44786 14.8761 5.07633 13.9704 4.95422L13.9725 4.92499L4.04244 4.16609L4.04199 4.16602Z" fill="#235997"/>
<path d="M4.04199 4.16619L9.85335 9.95717V9.96551L16.542 16.6307L16.0553 19.166H8.52687L5.89484 16.487C5.31831 15.9003 4.94708 14.9988 4.82535 14.0931L4.79611 14.0953L4.04199 4.16619Z" fill="#58B6F0"/>
</svg>
